<svg width="92" height="91" viewBox="0 0 92 91" fill="none" xmlns="http://www.w3.org/2000/svg">
<path d="M41.1279 1.77183C43.9939 -0.448279 47.9995 -0.448269 50.8656 1.77183L57.8008 7.144C59.1112 8.15893 60.7056 8.739 62.3627 8.80313L71.1308 9.14246C74.7539 9.28273 77.8237 11.8561 78.5906 15.3978L80.4473 23.9678C80.798 25.5868 81.6474 27.0557 82.8743 28.1689L89.3734 34.061C92.0587 36.4959 92.7541 40.4386 91.0643 43.6446L86.9742 51.4025C86.2013 52.8681 85.9073 54.5384 86.1318 56.1797L87.32 64.8676C87.8107 68.4579 85.807 71.9251 82.4501 73.2953L74.3267 76.611C72.7928 77.2374 71.4924 78.3277 70.6083 79.7291L65.9302 87.1477C63.9969 90.2134 60.2328 91.5827 56.7795 90.476L48.4237 87.7981C46.8451 87.2922 45.1483 87.2922 43.5697 87.7981L35.2139 90.476C31.7607 91.5827 27.9965 90.2134 26.0633 87.1477L21.3852 79.7291C20.501 78.3277 19.2006 77.2374 17.6667 76.611L9.54333 73.2953C6.18649 71.9251 4.18271 68.4579 4.67347 64.8676L5.86163 56.1797C6.08615 54.5384 5.79209 52.8681 5.01919 51.4025L0.929192 43.6446C-0.760654 40.4386 -0.0652485 36.4959 2.62003 34.061L9.11913 28.1689C10.346 27.0557 11.1954 25.5868 11.5461 23.9678L13.4029 15.3978C14.1698 11.8561 17.2395 9.28273 20.8626 9.14246L29.6307 8.80313C31.2878 8.739 32.8823 8.15893 34.1926 7.14401L41.1279 1.77183Z" fill="#C98347"/>
<path d="M54.0665 31.2374C54.0665 31.3009 53.9552 31.5868 53.7327 32.0951C53.5101 32.5716 50.5536 37.8769 44.8632 48.011C49.5681 46.0731 53.7645 43.4205 57.4521 40.053C61.1398 36.6538 62.9836 33.6994 62.9836 31.1897C62.9836 28.1718 60.1543 26.6628 54.4956 26.6628C51.1894 26.6628 47.4541 27.4252 43.2896 28.9501C39.1251 30.475 35.5487 32.4128 32.5604 34.7636C29.5721 37.1145 28.078 39.3383 28.078 41.4349C28.078 43.214 29.1907 44.1035 31.416 44.1035C33.2916 44.1035 35.501 43.4522 38.0442 42.1497C40.6192 40.8155 42.924 39.0523 44.9586 36.8603C45.2129 36.4474 45.4354 36.2409 45.6262 36.2409C45.8487 36.2409 45.96 36.3521 45.96 36.5744C45.96 37.3051 45.0222 38.4329 43.1465 39.9577C41.2709 41.4508 39.0138 42.8327 36.3752 44.1035C33.7367 45.3424 31.5272 45.9619 29.747 45.9619C27.2991 45.9619 26.0752 44.7071 26.0752 42.1974C26.0752 40.0054 27.8078 37.5434 31.2729 34.8113C34.7062 32.0792 38.8231 29.7761 43.6234 27.9017C48.4237 25.9956 52.6359 25.0426 56.26 25.0426C62.3001 25.0426 65.3202 26.7104 65.3202 30.0461C65.3202 32.937 63.1743 36.3362 58.8827 40.2436C54.6228 44.1511 49.7112 47.1691 44.1479 49.2976C40.9689 54.9841 38.8549 58.7168 37.8058 60.4958C37.6151 60.9088 37.2654 61.2265 36.7567 61.4489C36.2481 61.6712 35.8507 61.7824 35.5646 61.7824C35.3103 61.7824 35.1831 61.703 35.1831 61.5442L41.5252 50.203C39.5224 50.8065 37.6627 51.2036 35.9461 51.3943C35.7553 51.3943 35.66 51.2036 35.66 50.8224C35.66 50.4094 35.8348 50.1871 36.1845 50.1553C38.0601 50.06 40.0788 49.6629 42.2405 48.964L51.7776 31.9522C51.8729 31.698 52.159 31.4915 52.6359 31.3327C53.1127 31.1421 53.5101 31.0468 53.828 31.0468L54.0665 31.2374Z" fill="white"/>
</svg>
