<svg width="303" height="137" viewBox="0 0 303 137" fill="none" xmlns="http://www.w3.org/2000/svg">
<path d="M147.128 3.77183C149.994 1.55172 153.999 1.55173 156.866 3.77183L163.801 9.144C165.111 10.1589 166.706 10.739 168.363 10.8031L177.131 11.1425C180.754 11.2827 183.824 13.8561 184.591 17.3978L186.447 25.9678C186.798 27.5868 187.647 29.0557 188.874 30.1689L195.373 36.061C198.059 38.4959 198.754 42.4386 197.064 45.6446L192.974 53.4025C192.201 54.8681 191.907 56.5384 192.132 58.1797L193.32 66.8676C193.811 70.4579 191.807 73.9251 188.45 75.2953L180.327 78.611C178.793 79.2374 177.492 80.3277 176.608 81.7291L171.93 89.1477C169.997 92.2134 166.233 93.5827 162.78 92.476L154.424 89.7981C152.845 89.2922 151.148 89.2922 149.57 89.7981L141.214 92.476C137.761 93.5827 133.997 92.2134 132.063 89.1477L127.385 81.7291C126.501 80.3277 125.201 79.2374 123.667 78.611L115.543 75.2953C112.186 73.9251 110.183 70.4579 110.673 66.8676L111.862 58.1797C112.086 56.5384 111.792 54.8681 111.019 53.4025L106.929 45.6446C105.239 42.4386 105.935 38.4959 108.62 36.061L115.119 30.1689C116.346 29.0557 117.195 27.5868 117.546 25.9678L119.403 17.3978C120.17 13.8561 123.24 11.2827 126.863 11.1425L135.631 10.8031C137.288 10.739 138.882 10.1589 140.193 9.14401L147.128 3.77183Z" fill="#C98347"/>
<path d="M160.066 33.2374C160.066 33.3009 159.955 33.5868 159.733 34.0951C159.51 34.5716 156.554 39.8769 150.863 50.011C155.568 48.0731 159.764 45.4205 163.452 42.053C167.14 38.6538 168.984 35.6994 168.984 33.1897C168.984 30.1718 166.154 28.6628 160.496 28.6628C157.189 28.6628 153.454 29.4252 149.29 30.9501C145.125 32.475 141.549 34.4128 138.56 36.7636C135.572 39.1145 134.078 41.3383 134.078 43.4349C134.078 45.214 135.191 46.1035 137.416 46.1035C139.292 46.1035 141.501 45.4522 144.044 44.1497C146.619 42.8155 148.924 41.0523 150.959 38.8603C151.213 38.4474 151.435 38.2409 151.626 38.2409C151.849 38.2409 151.96 38.3521 151.96 38.5744C151.96 39.3051 151.022 40.4329 149.147 41.9577C147.271 43.4508 145.014 44.8327 142.375 46.1035C139.737 47.3424 137.527 47.9619 135.747 47.9619C133.299 47.9619 132.075 46.7071 132.075 44.1974C132.075 42.0054 133.808 39.5434 137.273 36.8113C140.706 34.0792 144.823 31.7761 149.623 29.9017C154.424 27.9956 158.636 27.0426 162.26 27.0426C168.3 27.0426 171.32 28.7104 171.32 32.0461C171.32 34.937 169.174 38.3362 164.883 42.2436C160.623 46.1511 155.711 49.1691 150.148 51.2976C146.969 56.9841 144.855 60.7168 143.806 62.4958C143.615 62.9088 143.265 63.2265 142.757 63.4489C142.248 63.6712 141.851 63.7824 141.565 63.7824C141.31 63.7824 141.183 63.703 141.183 63.5442L147.525 52.2029C145.522 52.8065 143.663 53.2036 141.946 53.3943C141.755 53.3943 141.66 53.2036 141.66 52.8224C141.66 52.4094 141.835 52.1871 142.184 52.1553C144.06 52.06 146.079 51.6629 148.241 50.964L157.778 33.9522C157.873 33.698 158.159 33.4915 158.636 33.3327C159.113 33.1421 159.51 33.0468 159.828 33.0468L160.066 33.2374Z" fill="white"/>
<path d="M1.48425 127.072V124.874L4.3307 124.385V104.369L1.48425 103.881V101.664H4.3307H13.1669C14.9831 101.664 16.5314 101.985 17.812 102.624C19.0927 103.252 20.0705 104.136 20.7458 105.277C21.421 106.416 21.7587 107.749 21.7587 109.272C21.7587 110.808 21.421 112.146 20.7458 113.286C20.0705 114.427 19.0927 115.31 17.812 115.939C16.5314 116.567 14.9831 116.881 13.1669 116.881H7.77089V124.385L10.6173 124.874V127.072H1.48425ZM7.77089 114.193H13.1669C14.8899 114.193 16.1763 113.734 17.0262 112.816C17.8877 111.884 18.3185 110.715 18.3185 109.307C18.3185 107.9 17.8877 106.725 17.0262 105.783C16.1763 104.84 14.8899 104.369 13.1669 104.369H7.77089V114.193ZM35.0591 127.072V124.874L37.9055 124.385V104.369L35.0591 103.881V101.682H46.3925C48.2435 101.682 49.8036 101.961 51.0725 102.52C52.3531 103.066 53.3252 103.863 53.9888 104.91C54.6523 105.957 54.9842 107.237 54.9842 108.749C54.9842 110.238 54.6582 111.489 54.0062 112.501C53.3659 113.513 52.4521 114.281 51.2646 114.805C50.0771 115.316 48.6684 115.59 47.0386 115.625L41.3457 115.729V124.385L44.1921 124.874V127.072H35.0591ZM51.8408 127.072L46.1829 114.386L49.623 114.351L54.3205 124.507L56.0843 124.821V127.072H51.8408ZM41.3457 113.025H46.0432C47.9641 113.025 49.3612 112.658 50.2343 111.925C51.1074 111.192 51.544 110.122 51.544 108.714C51.544 107.376 51.1248 106.318 50.2867 105.539C49.4484 104.758 48.1504 104.369 46.3925 104.369H41.3457V113.025ZM70.1706 127.072V124.874L73.017 124.385V104.369L70.1706 103.881V101.664H79.3036V103.881L76.4572 104.369V124.385L79.3036 124.874V127.072H70.1706ZM93.2851 127.072V124.874L96.1316 124.385V104.369L93.2851 103.881V101.664H96.1316H100.724L108.914 120.947H109.019L116.947 101.664H124.613V103.881L121.767 104.369V124.385L124.613 124.874V127.072H115.481V124.874L118.484 124.385V117.021V106.359L118.396 106.341L110.137 126.165H107.849L99.3098 106.376L99.2225 106.393L99.3443 117.021V124.385L102.418 124.874V127.072H93.2851ZM138.386 127.072V124.874L140.271 124.611L149.16 101.664H152.111L160.842 124.611L162.711 124.874V127.072H155.412V124.874L157.332 124.542L155.657 119.865H145.476L143.746 124.542L145.667 124.874V127.072H138.386ZM146.541 116.986H154.608L150.871 106.655L150.662 106.08H150.557L150.348 106.655L146.541 116.986ZM181.757 127.072L173.235 104.16L171.209 103.881V101.664H179.242V103.881L176.919 104.247L182.613 120.406L183.207 122.413H183.311L183.94 120.406L189.842 104.229L187.258 103.881V101.664H195.273V103.881L193.23 104.16L184.708 127.072H181.757ZM208.73 127.072V124.874L211.577 124.385V104.369L208.73 103.881V101.664H227.556V107.772H224.796L224.413 104.317H215.018V112.588H224.395V115.293H215.018V124.489H224.971L225.355 120.982H228.097V127.072H208.73ZM242.445 127.072V124.874L245.292 124.385V104.369L242.445 103.881V101.682H253.779C255.63 101.682 257.189 101.961 258.459 102.52C259.74 103.066 260.711 103.863 261.375 104.91C262.038 105.957 262.37 107.237 262.37 108.749C262.37 110.238 262.044 111.489 261.393 112.501C260.752 113.513 259.838 114.281 258.651 114.805C257.464 115.316 256.055 115.59 254.425 115.625L248.732 115.729V124.385L251.578 124.874V127.072H242.445ZM259.227 127.072L253.569 114.386L257.01 114.351L261.707 124.507L263.471 124.821V127.072H259.227ZM248.732 113.025H253.429C255.35 113.025 256.747 112.658 257.621 111.925C258.494 111.192 258.93 110.122 258.93 108.714C258.93 107.376 258.511 106.318 257.673 105.539C256.835 104.758 255.536 104.369 253.779 104.369H248.732V113.025ZM277.364 127.072V124.874L279.251 124.611L288.139 101.664H291.091L299.822 124.611L301.691 124.874V127.072H294.391V124.874L296.312 124.542L294.635 119.865H284.454L282.726 124.542L284.646 124.874V127.072H277.364ZM285.519 116.986H293.587L289.851 106.655L289.641 106.08H289.536L289.326 106.655L285.519 116.986Z" fill="#C98347"/>
</svg>
