<svg width="24" height="24" viewBox="0 0 24 24" fill="none" xmlns="http://www.w3.org/2000/svg">
<path d="M12.04 2.59332C6.58 2.59332 2.13 6.87037 2.13 12.1182C2.13 13.8002 2.59 15.4341 3.45 16.8758L2.05 21.816L7.3 20.4897C8.75 21.249 10.38 21.6526 12.04 21.6526C17.5 21.6526 21.95 17.3756 21.95 12.1278C21.95 9.58078 20.92 7.18755 19.05 5.39022C18.1332 4.50014 17.0412 3.79442 15.8376 3.31422C14.6341 2.83402 13.3431 2.58896 12.04 2.59332ZM12.05 4.19842C14.25 4.19842 16.31 5.02499 17.87 6.52436C18.6356 7.25997 19.2426 8.13361 19.6562 9.09517C20.0697 10.0567 20.2817 11.0873 20.28 12.1278C20.28 16.4913 16.58 20.0379 12.04 20.0379C10.56 20.0379 9.11 19.6631 7.85 18.9326L7.55 18.7692L4.43 19.5574L5.26 16.6355L5.06 16.328C4.23394 15.0676 3.79702 13.6078 3.8 12.1182C3.81 7.75462 7.5 4.19842 12.05 4.19842ZM8.53 7.71617C8.37 7.71617 8.1 7.77384 7.87 8.01413C7.65 8.25441 7 8.8407 7 10.0037C7 11.1763 7.89 12.3008 8 12.4642C8.14 12.6276 9.76 15.0304 12.25 16.0492C12.84 16.3087 13.3 16.4529 13.66 16.5586C14.25 16.7412 14.79 16.7124 15.22 16.6547C15.7 16.5875 16.68 16.0781 16.89 15.5206C17.1 14.9631 17.1 14.4922 17.04 14.3865C16.97 14.2903 16.81 14.2327 16.56 14.1269C16.31 13.9924 15.09 13.4157 14.87 13.3388C14.64 13.2619 14.5 13.2235 14.31 13.4542C14.15 13.6944 13.67 14.2327 13.53 14.3865C13.38 14.5498 13.24 14.5691 13 14.4537C12.74 14.3288 11.94 14.0789 11 13.2715C10.26 12.6372 9.77 11.8587 9.62 11.6184C9.5 11.3877 9.61 11.2435 9.73 11.1378C9.84 11.0321 10 10.8591 10.1 10.7149C10.23 10.5804 10.27 10.4746 10.35 10.3209C10.43 10.1575 10.39 10.0229 10.33 9.90756C10.27 9.80184 9.77 8.61003 9.56 8.13907C9.36 7.67773 9.16 7.7354 9 7.72578C8.86 7.72578 8.7 7.71617 8.53 7.71617Z" fill="black"/>
</svg>
